<?xml version="1.0" encoding="UTF-8" standalone="no"?>
<!-- Created with Inkscape (http://www.inkscape.org/) -->

<svg
   xmlns:dc="http://purl.org/dc/elements/1.1/"
   xmlns:cc="http://creativecommons.org/ns#"
   xmlns:rdf="http://www.w3.org/1999/02/22-rdf-syntax-ns#"
   xmlns:svg="http://www.w3.org/2000/svg"
   xmlns="http://www.w3.org/2000/svg"
   xmlns:sodipodi="http://sodipodi.sourceforge.net/DTD/sodipodi-0.dtd"
   xmlns:inkscape="http://www.inkscape.org/namespaces/inkscape"
   id="svg2"
   version="1.1"
   inkscape:version="0.48.4 r9939"
   width="265.74802"
   height="265.74802"
   xml:space="preserve"
   sodipodi:docname="fsf_vstupenka.svg"><metadata
     id="metadata8"><rdf:RDF><cc:Work
         rdf:about=""><dc:format>image/svg+xml</dc:format><dc:type
           rdf:resource="http://purl.org/dc/dcmitype/StillImage" /><dc:title /></cc:Work></rdf:RDF></metadata><defs
     id="defs6"><clipPath
   clipPathUnits="userSpaceOnUse"
   id="clipPath20"><path
     d="m 0.516,141.779 254.168,0 0,-140.57 -254.168,0 0,140.57 z"
     id="path22"
     inkscape:connector-curvature="0" /></clipPath><clipPath
   clipPathUnits="userSpaceOnUse"
   id="clipPath30"><path
     d="M 0,1 255,1 255,143 0,143 0,1 z"
     id="path32"
     inkscape:connector-curvature="0" /></clipPath><clipPath
   clipPathUnits="userSpaceOnUse"
   id="clipPath40"><path
     d="m 0.516,142.254 254.168,0 0,-140.57 -254.168,0 0,140.57 z"
     id="path42"
     inkscape:connector-curvature="0" /></clipPath><clipPath
   id="clipPath148"><path
     d="m 14.173,94.846 0,-128.212 392.421,0 0,107.04 C 343.317,44.702 272.947,28.543 198.801,28.543 c -2.219,0 -4.435,0.018 -6.648,0.047 -0.656,0.008 -1.31,0.024 -1.965,0.035 -1.582,0.027 -3.163,0.058 -4.741,0.099 -0.713,0.019 -1.426,0.043 -2.138,0.065 -1.553,0.047 -3.105,0.1 -4.655,0.161 -0.663,0.027 -1.325,0.054 -1.987,0.084 -1.67,0.073 -3.338,0.154 -5.003,0.243 -0.516,0.028 -1.033,0.054 -1.549,0.084 -1.991,0.113 -3.979,0.237 -5.964,0.373 -0.182,0.013 -0.367,0.024 -0.549,0.036 -6.905,0.482 -13.774,1.105 -20.6,1.862 -39.613,4.846 -61.945,10.711 -76.814,19.534 -15.784,9.364 -14.961,23.468 -2.44,26.98 12.523,3.512 25.582,-10.15 25.582,-10.15 0.251,17.923 -10.299,35.209 -35.136,37.904 -1.916,0.207 -3.794,0.302 -5.627,0.302 -16.138,0.001 -28.824,-7.434 -34.394,-11.356"
     inkscape:connector-curvature="0"
     id="path150" /></clipPath><clipPath
   id="clipPath154"><path
     d="m 14.173,106.203 392.421,0 0,-92.029 -392.421,0 0,92.029 z"
     inkscape:connector-curvature="0"
     id="path156" /></clipPath><clipPath
   id="clipPath168"><path
     d="m 310.605,20.372 89.627,0 0,89.628 -89.627,0 0,-89.628 z"
     inkscape:connector-curvature="0"
     id="path170" /></clipPath><clipPath
   id="clipPath148-3"><path
     d="m 14.173,94.846 0,-128.212 392.421,0 0,107.04 C 343.317,44.702 272.947,28.543 198.801,28.543 c -2.219,0 -4.435,0.018 -6.648,0.047 -0.656,0.008 -1.31,0.024 -1.965,0.035 -1.582,0.027 -3.163,0.058 -4.741,0.099 -0.713,0.019 -1.426,0.043 -2.138,0.065 -1.553,0.047 -3.105,0.1 -4.655,0.161 -0.663,0.027 -1.325,0.054 -1.987,0.084 -1.67,0.073 -3.338,0.154 -5.003,0.243 -0.516,0.028 -1.033,0.054 -1.549,0.084 -1.991,0.113 -3.979,0.237 -5.964,0.373 -0.182,0.013 -0.367,0.024 -0.549,0.036 -6.905,0.482 -13.774,1.105 -20.6,1.862 -39.613,4.846 -61.945,10.711 -76.814,19.534 -15.784,9.364 -14.961,23.468 -2.44,26.98 12.523,3.512 25.582,-10.15 25.582,-10.15 0.251,17.923 -10.299,35.209 -35.136,37.904 -1.916,0.207 -3.794,0.302 -5.627,0.302 -16.138,0.001 -28.824,-7.434 -34.394,-11.356"
     inkscape:connector-curvature="0"
     id="path150-1" /></clipPath><clipPath
   id="clipPath154-7"><path
     d="m 14.173,106.203 392.421,0 0,-92.029 -392.421,0 0,92.029 z"
     inkscape:connector-curvature="0"
     id="path156-4" /></clipPath><clipPath
   id="clipPath168-3"><path
     d="m 310.605,20.372 89.627,0 0,89.628 -89.627,0 0,-89.628 z"
     inkscape:connector-curvature="0"
     id="path170-0" /></clipPath><clipPath
   id="clipPath148-3-7"><path
     d="m 14.173,94.846 0,-128.212 392.421,0 0,107.04 C 343.317,44.702 272.947,28.543 198.801,28.543 c -2.219,0 -4.435,0.018 -6.648,0.047 -0.656,0.008 -1.31,0.024 -1.965,0.035 -1.582,0.027 -3.163,0.058 -4.741,0.099 -0.713,0.019 -1.426,0.043 -2.138,0.065 -1.553,0.047 -3.105,0.1 -4.655,0.161 -0.663,0.027 -1.325,0.054 -1.987,0.084 -1.67,0.073 -3.338,0.154 -5.003,0.243 -0.516,0.028 -1.033,0.054 -1.549,0.084 -1.991,0.113 -3.979,0.237 -5.964,0.373 -0.182,0.013 -0.367,0.024 -0.549,0.036 -6.905,0.482 -13.774,1.105 -20.6,1.862 -39.613,4.846 -61.945,10.711 -76.814,19.534 -15.784,9.364 -14.961,23.468 -2.44,26.98 12.523,3.512 25.582,-10.15 25.582,-10.15 0.251,17.923 -10.299,35.209 -35.136,37.904 -1.916,0.207 -3.794,0.302 -5.627,0.302 -16.138,0.001 -28.824,-7.434 -34.394,-11.356"
     inkscape:connector-curvature="0"
     id="path150-1-4" /></clipPath><clipPath
   id="clipPath154-7-5"><path
     d="m 14.173,106.203 392.421,0 0,-92.029 -392.421,0 0,92.029 z"
     inkscape:connector-curvature="0"
     id="path156-4-3" /></clipPath><clipPath
   id="clipPath4040"
   clipPathUnits="userSpaceOnUse"><path
     id="path4042"
     d="M 0,736.965 0,0 l 3770.76,0 0,736.965 -3770.76,0 z" /></clipPath>






</defs><sodipodi:namedview
     pagecolor="#ffffff"
     bordercolor="#666666"
     borderopacity="1"
     objecttolerance="10"
     gridtolerance="10"
     guidetolerance="10"
     inkscape:pageopacity="0"
     inkscape:pageshadow="2"
     inkscape:window-width="1920"
     inkscape:window-height="1007"
     id="namedview4"
     showgrid="false"
     inkscape:zoom="2.2185802"
     inkscape:cx="125.47344"
     inkscape:cy="150.29053"
     inkscape:window-x="0"
     inkscape:window-y="35"
     inkscape:window-maximized="1"
     inkscape:current-layer="g10"
     units="mm"
     inkscape:document-units="mm"
     showguides="true"
     inkscape:guide-bbox="true"
     showborder="true"
     inkscape:showpageshadow="true" /><g
     inkscape:groupmode="layer"
     id="layer1"
     inkscape:label="FSF"
     style="display:inline"
     transform="translate(0,88.582656)">







</g><g
     inkscape:groupmode="layer"
     id="layer2"
     inkscape:label="protect"
     transform="translate(0,88.582656)" /><g
     id="g10"
     inkscape:groupmode="layer"
     inkscape:label="vizitka_pirati"
     transform="matrix(1.25,0,0,-1.25,0,265.74806)"
     style="display:inline">




<path
   id="path3275"
   style="fill:#85c226;fill-opacity:1;fill-rule:evenodd;stroke:#85c226;stroke-width:0.26392886;stroke-linecap:butt;stroke-linejoin:miter;stroke-miterlimit:10;stroke-opacity:1;stroke-dasharray:none;display:inline"
   d="m 9.1525856,209.00638 71.8291984,0 c 2.143576,0 3.897608,-1.81745 3.897608,-4.03897 l 0,-71.54658 c 0,-2.22117 -1.754032,-4.03885 -3.897608,-4.03885 l -71.8291984,0 c -2.1436998,0 -3.8976094,1.81768 -3.8976094,4.03885 l 0,71.54658 c 0,2.22152 1.7539096,4.03897 3.8976094,4.03897 z m 4.7642674,-5.28139 62.300662,0 c 1.859216,0 3.38048,-1.57624 3.38048,-3.50316 l 0,-62.05542 c 0,-1.9268 -1.521264,-3.50316 -3.38048,-3.50316 l -62.300662,0 c -1.859339,0 -3.380609,1.57636 -3.380609,3.50316 l 0,62.05542 c 0,1.92692 1.52127,3.50316 3.380609,3.50316 z"
   inkscape:connector-curvature="0"
   inkscape:export-filename="/tmp/logoFSF.png"
   inkscape:export-xdpi="90"
   inkscape:export-ydpi="90" /><text
   transform="scale(1,-1)"
   id="text3277"
   x="90.391991"
   y="-171.98434"
   style="font-size:16.13904953px;font-style:normal;font-variant:normal;font-weight:900;font-stretch:normal;text-align:start;line-height:125%;writing-mode:lr-tb;text-anchor:start;display:inline;font-family:'M+ 1p';-inkscape-font-specification:'M+ 1p Heavy'"
   sodipodi:linespacing="125%"
   inkscape:export-filename="/tmp/logoFSF.png"
   inkscape:export-xdpi="90"
   inkscape:export-ydpi="90"><tspan
     id="tspan3279"
     sodipodi:role="line"
     x="90.391991"
     style="font-size:16.13904953px;font-style:normal;font-variant:normal;font-weight:900;font-stretch:normal;text-align:start;line-height:125%;writing-mode:lr-tb;text-anchor:start;fill:#1f1917;fill-opacity:1;fill-rule:nonzero;stroke:none;font-family:'M+ 1p';-inkscape-font-specification:'M+ 1p Heavy'"
     y="-171.98434">SVOBODNÝCH</tspan></text>
<text
   transform="scale(1,-1)"
   id="text3281"
   x="90.706894"
   y="-189.99123"
   style="font-size:23.70683098px;font-style:normal;font-variant:normal;font-weight:900;font-stretch:normal;text-align:start;line-height:125%;writing-mode:lr-tb;text-anchor:start;display:inline;font-family:'M+ 1p';-inkscape-font-specification:'M+ 1p Heavy'"
   sodipodi:linespacing="125%"
   inkscape:export-filename="/tmp/logoFSF.png"
   inkscape:export-xdpi="90"
   inkscape:export-ydpi="90"><tspan
     y="-189.99123"
     x="90.706894"
     id="tspan3283"
     sodipodi:role="line"
     style="font-size:23.70683098px;font-style:normal;font-variant:normal;font-weight:900;font-stretch:normal;text-align:start;line-height:125%;writing-mode:lr-tb;text-anchor:start;fill:#1f1917;fill-opacity:1;fill-rule:nonzero;stroke:none;font-family:'M+ 1p';-inkscape-font-specification:'M+ 1p Heavy'">FESTIVAL</tspan></text>
<text
   transform="scale(1,-1)"
   id="text3285"
   x="88.711487"
   y="-130.1465"
   style="font-size:37.12340164px;font-style:normal;font-variant:normal;font-weight:900;font-stretch:normal;text-align:start;line-height:125%;writing-mode:lr-tb;text-anchor:start;display:inline;font-family:'M+ 1p';-inkscape-font-specification:'M+ 1p Heavy'"
   sodipodi:linespacing="125%"
   inkscape:export-filename="/tmp/logoFSF.png"
   inkscape:export-xdpi="90"
   inkscape:export-ydpi="90"><tspan
     y="-130.1465"
     x="88.711487"
     id="tspan3287"
     sodipodi:role="line"
     style="font-size:37.12340164px;font-style:normal;font-variant:normal;font-weight:900;font-stretch:normal;text-align:start;line-height:125%;writing-mode:lr-tb;text-anchor:start;fill:#1f1917;fill-opacity:1;fill-rule:nonzero;stroke:none;font-family:'M+ 1p';-inkscape-font-specification:'M+ 1p Heavy'">FILMŮ</tspan></text>
<path
   id="path3311"
   style="fill:#191919;fill-opacity:1;fill-rule:evenodd;stroke:#191919;stroke-width:0.24287419;stroke-linecap:butt;stroke-linejoin:miter;stroke-miterlimit:10;stroke-opacity:1;stroke-dasharray:none;display:inline"
   d="m 41.870925,170.66982 c -12.610946,-1.54659 -17.522912,-13.79689 -13.947138,-20.15968 1.181324,-1.59185 4.276892,-1.89244 4.66708,7.17688 0.06768,1.57586 0.014,-4.57428 1.809072,-5.01418 0.472247,-0.1159 1.881892,-0.19726 2.226366,6.29379 0.0477,0.89202 0.394277,-3.29901 1.68894,-2.03575 0.535708,0.5222 0.605511,1.75478 0.78146,3.30302 0.250267,2.20067 3.115893,3.48664 5.138669,5.29807 1.402976,1.25634 0.0656,2.6889 -0.0768,4.26804 l -2.28766,0.86981 z m -0.374389,-1.27503 c -10.382098,-0.25921 -17.178964,-12.251 -12.742043,-17.53603 0.909976,-0.78176 3.323257,2.05866 3.772377,8.32412 0.156707,2.18539 0.646261,-5.15807 1.660228,-5.65087 1.605483,-0.78081 1.945672,3.98038 2.369732,6.4244 0.377166,-0.9561 0.691429,-2.60296 1.110329,-2.84619 1.69712,0.25463 -1.411569,3.20909 5.7217,7.59974 1.579459,0.97231 -1.468579,2.69418 -1.892323,3.68483 z"
   inkscape:connector-curvature="0"
   inkscape:export-filename="/tmp/logoFSF.png"
   inkscape:export-xdpi="90"
   inkscape:export-ydpi="90" /><path
   id="path3313"
   style="fill:#191919;fill-opacity:1;fill-rule:evenodd;stroke:#191919;stroke-width:0.24287419;stroke-linecap:butt;stroke-linejoin:miter;stroke-miterlimit:10;stroke-opacity:1;stroke-dasharray:none;display:inline"
   d="m 46.979885,174.15846 c 3.832394,13.2237 15.779116,16.11655 20.796802,11.04865 1.199922,-1.5748 0.869531,-4.95281 -7.345901,-3.61325 -1.427392,0.23266 4.102768,-0.90201 4.149762,-2.91178 0.01217,-0.52876 -0.187767,-2.05644 -6.080474,-1.16793 -0.809746,0.12191 2.884565,-1.06177 1.499872,-2.20572 -0.572479,-0.47282 -1.692289,-0.30918 -3.116016,-0.19762 -2.023312,0.15834 -3.733017,-2.6655 -5.750839,-4.48364 -1.39964,-1.26092 -2.426193,0.45083 -3.816037,0.90943 l -0.337169,2.62186 z m 1.217022,0.15425 c 2.244755,11.08307 14.324631,16.04753 18.208207,10.26524 0.525265,-1.12727 -2.491578,-3.16465 -8.201984,-2.43191 -1.992019,0.25556 4.504033,-1.69283 4.749991,-2.87548 0.389324,-1.87303 -3.949727,-1.31487 -6.225239,-1.29628 0.785,-0.58944 2.202059,-1.24589 2.339181,-1.74211 -0.557313,-1.77051 -2.606549,2.13567 -7.929772,-4.66267 -1.178634,-1.5052 -2.133449,2.09676 -2.940384,2.74321 z"
   inkscape:connector-curvature="0"
   inkscape:export-filename="/tmp/logoFSF.png"
   inkscape:export-xdpi="90"
   inkscape:export-ydpi="90" /><g
   style="display:inline"
   id="g3645"
   transform="matrix(-0.11073804,0,0,-0.11073804,97.597824,238.57448)"
   inkscape:export-filename="/tmp/logoFSF.png"
   inkscape:export-xdpi="90"
   inkscape:export-ydpi="90"><path
     inkscape:connector-curvature="0"
     id="rect2985"
     style="color:#000000"
     d="m 397.73,860.63 c 3.1422,0.4766 6.3024,0.90541 9.4807,1.2864 -1.2688,8.5723 -2.3978,17.162 -3.4112,25.757 -3.2702,-0.46626 -6.5249,-0.9789 -9.7642,-1.5379 1.1065,-8.5091 2.3303,-17.015 3.6946,-25.506 z M 223.84,767.51 c 2.3832,2.482 4.7844,4.9163 7.2038,7.3027 -4.3887,7.3242 -8.6021,14.747 -12.644,22.255 -2.6209,-2.4125 -5.2262,-4.8714 -7.8161,-7.3767 4.2428,-7.4929 8.6606,-14.892 13.257,-22.181 z m 179.64,61.714 c 3.0202,0.37983 6.0619,0.71096 9.125,0.9934 -1.6494,8.501 -3.1296,17.034 -4.4646,25.588 -3.1563,-0.36152 -6.2938,-0.77107 -9.4126,-1.2287 1.4307,-8.473 3.0071,-16.928 4.7521,-25.353 z m -161.77,-88.21 c 2.12,2.4232 4.2615,4.7978 6.4244,7.1236 -4.8223,7.0477 -9.4651,14.213 -13.932,21.481 -2.3706,-2.3773 -4.7225,-4.8026 -7.0557,-7.2759 4.6752,-7.2278 9.5287,-14.343 14.563,-21.329 z m 169.08,57.069 c 2.8995,0.28809 5.824,0.52751 8.7734,0.71825 -2.1102,8.4219 -4.0206,16.891 -5.7554,25.396 -3.0412,-0.2644 -6.0603,-0.57757 -9.0572,-0.93951 1.8304,-8.4288 3.8356,-16.824 6.0391,-25.174 z m -149.53,-82.41 c 1.8517,2.3306 3.7283,4.6125 5.6299,6.8457 -5.2852,6.7482 -10.385,13.634 -15.304,20.641 -2.1133,-2.3106 -4.2044,-4.67 -6.2735,-7.0782 5.1322,-6.9405 10.447,-13.748 15.948,-20.408 z m 158.64,51.705 c 2.7832,0.20668 5.595,0.36592 8.4354,0.47772 -0.15359,0.4823 -0.30633,0.96477 -0.45823,1.4474 -2.4584,7.801 -4.7137,15.653 -6.7855,23.546 -2.9285,-0.17412 -5.8313,-0.3968 -8.7084,-0.66804 2.1576,-7.8276 4.4991,-15.619 7.043,-23.365 0.15707,-0.47955 0.315,-0.95896 0.47382,-1.4382 z M 282.46,691.711 c 1.584,2.1976 3.1966,4.3478 4.8378,6.4506 -0.33327,0.37309 -0.66586,0.74662 -0.99778,1.1206 -5.3718,6.0379 -10.584,12.2 -15.63,18.481 -1.8512,-2.2117 -3.6768,-4.472 -5.4767,-6.7808 5.2493,-6.1918 10.663,-12.252 16.233,-18.174 0.34425,-0.36651 0.68912,-0.73251 1.0346,-1.098 z M 431.3,737.07 c 2.6574,0.15558 5.346,0.26709 8.066,0.33455 -3.3206,8.0896 -6.3423,16.29 -9.1042,24.554 -2.8192,-0.1005 -5.6092,-0.24795 -8.3699,-0.44237 2.8557,-8.2171 5.9795,-16.381 9.4081,-24.446 z M 305.35,669.094 c 1.3448,2.0044 2.7208,3.9646 4.1281,5.8809 -6.2144,6.0722 -12.238,12.289 -18.063,18.64 -1.5927,-2.0711 -3.1562,-4.1892 -4.6904,-6.3543 6.028,-6.2113 12.24,-12.269 18.625,-18.166 z m 140.14,38.595 c 2.5146,0.1409 5.0615,0.24331 7.6407,0.30722 -1.372,2.5784 -2.705,5.1753 -4.0004,7.789 -2.5967,5.2378 -5.0448,10.544 -7.3557,15.904 -2.6944,-0.0633 -5.3572,-0.16985 -7.9884,-0.31953 2.3848,-5.3481 4.9092,-10.648 7.5839,-15.885 1.3342,-2.6139 2.7072,-5.213 4.1201,-7.7955 z M 329.8,647.979 c 1.161,1.7565 2.3543,3.4745 3.5799,5.154 -2.2233,1.8999 -4.4258,3.816 -6.6068,5.7486 -4.3719,3.8718 -8.662,7.8117 -12.868,11.817 -1.3682,-1.8748 -2.7049,-3.7927 -4.0099,-5.7538 4.3143,-3.8829 8.7048,-7.6932 13.169,-11.429 2.2269,-1.864 4.4725,-3.7096 6.7361,-5.5372 z m 133.17,31.701 c 2.3485,0.17733 4.7277,0.32423 7.1376,0.4407 -1.3449,1.9237 -2.6615,3.8661 -3.9495,5.8262 -3.5577,5.4222 -6.905,10.958 -10.057,16.59 -2.5496,-0.0691 -5.0669,-0.17536 -7.5521,-0.31878 3.2456,-5.647 6.6907,-11.208 10.35,-16.666 1.3282,-1.9754 2.6856,-3.9333 4.0718,-5.8728 z M 355.74,628.33 c 1.0586,1.4542 2.148,2.878 3.2681,4.2713 -1.8973,1.4224 -3.7824,2.8569 -5.655,4.3036 -5.1656,3.9928 -10.238,8.0591 -15.21,12.203 -1.1984,-1.6285 -2.3646,-3.2942 -3.4986,-4.997 5.052,-3.9781 10.189,-7.8701 15.405,-11.681 1.8868,-1.3785 3.784,-2.745 5.6911,-4.0999 z m 128.44,25.521 c 2.1494,0.25008 4.3247,0.47897 6.5258,0.68668 -6.0218,6.5079 -11.67,13.345 -16.923,20.46 -2.3718,-0.13266 -4.7137,-0.29398 -7.0255,-0.48394 5.4121,-7.1762 11.227,-14.08 17.423,-20.662 z M 383.01,610.127 c 1.0652,1.1392 2.1563,2.2573 3.2732,3.3541 -7.5374,4.9472 -14.929,10.054 -22.153,15.329 -1.1123,-1.3349 -2.1946,-2.6985 -3.2469,-4.0907 7.2465,-5.0231 14.629,-9.8833 22.127,-14.592 z m 125.95,20.832 c 1.9227,0.34742 3.8631,0.68286 5.8212,1.0063 -0.39377,0.31857 -0.78658,0.63846 -1.1784,0.9597 -6.5097,5.3495 -12.704,11.047 -18.564,17.05 -2.1582,-0.22753 -4.2918,-0.47448 -6.4008,-0.74086 6.0288,-6.077 12.404,-11.857 19.108,-17.3 0.40375,-0.32626 0.80841,-0.65117 1.214,-0.97473 z M 411.382,593.27 c 1.1778,0.85015 2.3734,1.6883 3.5868,2.5145 -0.44889,0.25975 -0.8976,0.52003 -1.3461,0.78084 -7.4472,4.3561 -14.776,8.825 -21.969,13.432 -1.1268,-1.0428 -2.2291,-2.105 -3.3068,-3.1866 7.1396,-4.3856 14.383,-8.6408 21.711,-12.794 0.44109,-0.24923 0.88236,-0.49803 1.3238,-0.7464 z m 125.13,18.361 c 1.7068,0.43857 3.4221,0.87227 5.146,1.3011 -7.5297,4.7032 -14.872,9.7267 -21.938,15.145 -1.9087,-0.34534 -3.8015,-0.70109 -5.6785,-1.0673 7.2637,-5.503 14.783,-10.605 22.471,-15.379 z m -96.129,-34.032 c 1.3477,0.6428 2.704,1.2807 4.0688,1.9138 -7.9962,4.2309 -15.972,8.575 -23.898,13.073 -1.2423,-0.78239 -2.4687,-1.5752 -3.6792,-2.3784 7.7955,-4.3124 15.64,-8.5021 23.509,-12.608 z m 125.26,17.689 c 1.5435,0.50859 3.0878,1.0167 4.633,1.5244 -1.7345,0.89249 -3.4663,1.7943 -5.1942,2.7074 -4.1909,2.2121 -8.3521,4.4936 -12.47,6.8561 -1.8634,1.0694 -3.7183,2.1556 -5.5634,3.2595 -1.6857,-0.44615 -3.3644,-0.89611 -5.0361,-1.3499 1.8815,-1.12 3.7718,-2.2218 5.6696,-3.3064 4.1938,-2.395 8.4282,-4.7073 12.69,-6.9483 1.7556,-0.9253 3.513,-1.8389 5.2714,-2.7428 z m -96.018,-32.62 c 1.5075,0.52792 3.0158,1.0554 4.525,1.5824 -1.7637,0.89126 -3.5307,1.7845 -5.3005,2.6804 -4.2966,2.1698 -8.5923,4.3554 -12.881,6.5664 -1.941,1.0013 -3.8815,2.008 -5.8213,3.0209 -1.3934,-0.60616 -2.7798,-1.2161 -4.1592,-1.8299 1.9092,-0.986 3.8194,-1.9676 5.7303,-2.9455 4.2228,-2.16 8.4515,-4.3021 12.681,-6.4359 1.7436,-0.8808 3.4859,-1.7602 5.2263,-2.6388 z m 125.47,18.021 c 1.4717,0.55299 2.9404,1.1075 4.4063,1.6634 -7.8588,3.8488 -15.775,7.6638 -23.655,11.627 -1.5208,-0.51987 -3.0418,-1.0396 -4.5631,-1.5593 7.9697,-4.0101 15.937,-7.8616 23.811,-11.731 z m -96.47,-32.838 c 1.5936,0.49043 3.1844,0.98235 4.7722,1.4758 -7.7666,4.0478 -15.647,8.0473 -23.603,12.07 -1.5313,-0.51543 -3.0628,-1.0308 -4.5946,-1.546 7.8654,-3.9771 15.686,-7.9549 23.426,-12 z m 124.99,18.081 c 1.5084,0.55089 3.0154,1.1027 4.521,1.6554 -4.213,2.3588 -8.4888,4.6325 -12.796,6.853 -0.7944,0.40807 -1.59,0.81439 -2.3867,1.2192 -2.6219,1.3333 -5.2564,2.6507 -7.8998,3.9595 -1.464,-0.56006 -2.931,-1.1185 -4.4011,-1.6754 2.6431,-1.3131 5.2733,-2.6331 7.887,-3.9667 0.79446,-0.40458 1.5875,-0.81062 2.379,-1.2183 4.2834,-2.2226 8.5258,-4.4877 12.697,-6.8266 z M 526.819,532.44 c 1.5673,0.51332 3.1332,1.0275 4.6976,1.5426 -4.1275,2.3818 -8.3082,4.7245 -12.529,7.0433 -0.78008,0.42536 -1.5615,0.84942 -2.3442,1.2723 -2.5749,1.3939 -5.1652,2.7775 -7.7694,4.1537 -1.5921,-0.49383 -3.1872,-0.98608 -4.7854,-1.4768 2.6007,-1.3781 5.1913,-2.7657 7.7705,-4.1652 0.78375,-0.42488 1.5666,-0.85101 2.3484,-1.2785 4.2382,-2.3264 8.4461,-4.6854 12.611,-7.0914 z m 123.17,16.505 c 1.6332,0.45239 3.2713,0.90107 4.9144,1.346 -6.7812,5.185 -13.983,9.8692 -21.427,14.237 -1.5258,-0.54158 -3.052,-1.0828 -4.5788,-1.6236 7.357,-4.314 14.445,-8.9072 21.092,-13.959 z m -96.236,-33.366 c 1.4247,0.60782 2.8544,1.2119 4.289,1.8123 -6.8544,4.7152 -13.976,9.1952 -21.287,13.528 -1.5476,-0.5263 -3.0956,-1.0522 -4.6442,-1.5778 7.3942,-4.3885 14.633,-8.9482 21.643,-13.763 z m 118.84,12.437 c 1.7562,0.22974 3.525,0.44649 5.3064,0.65026 -4.162,4.8835 -8.6779,9.4706 -13.471,13.753 -1.5591,1.3936 -3.1469,2.7555 -4.7607,4.0854 -0.01,0.008 -0.02,0.0165 -0.03,0.0248 -1.6778,-0.40973 -3.3489,-0.82456 -5.0134,-1.2445 0.01,-0.008 0.0196,-0.0161 0.0294,-0.0241 1.5801,-1.2889 3.1366,-2.6073 4.6669,-3.9548 4.7127,-4.1446 9.162,-8.5772 13.273,-13.29 z m -93.866,-31.609 c 1.2264,0.77465 2.4654,1.5363 3.7171,2.285 -4.7155,4.0864 -9.6091,7.987 -14.632,11.711 -1.6312,1.2105 -3.2738,2.4046 -4.9267,3.5833 -0.0102,0.007 -0.0205,0.0147 -0.0307,0.0221 -1.3974,-0.62362 -2.7882,-1.2523 -4.1723,-1.8861 0.0105,-0.008 0.021,-0.015 0.0315,-0.0226 1.6938,-1.2087 3.3763,-2.4339 5.0464,-3.6768 5.1351,-3.8196 10.14,-7.8215 14.967,-12.016 z m 111.64,6.0863 c 1.733,-0.0188 3.4811,-0.0601 5.2441,-0.12387 -0.3704,0.70316 -0.74602,1.403 -1.1269,2.0995 -3.7462,6.8558 -8.0086,13.4 -12.769,19.513 -1.7944,-0.14759 -3.575,-0.31025 -5.342,-0.48799 4.73,-5.9086 9.017,-12.263 12.841,-18.95 0.38933,-0.67972 0.77388,-1.3634 1.1537,-2.0509 z m -89.311,-28.521 c 1.1048,0.92503 2.2245,1.8276 3.3593,2.7076 -0.51093,0.59747 -1.025,1.1907 -1.542,1.7796 -5.0811,5.7927 -10.45,11.231 -16.032,16.324 -1.2202,-0.78016 -2.4268,-1.5754 -3.6196,-2.3857 5.6979,-5.2159 11.151,-10.753 16.28,-16.625 0.52142,-0.59659 1.0395,-1.197 1.5541,-1.8011 z m 102.04,-0.87942 c 1.5592,-0.13689 3.1295,-0.29951 4.7109,-0.48785 -0.15046,0.48198 -0.30267,0.96335 -0.45665,1.4441 -2.3726,7.4052 -5.1575,14.66 -8.4295,21.66 -0.18196,0.38813 -0.36535,0.77541 -0.55019,1.1618 -1.7349,0.10177 -3.4554,0.17985 -5.1614,0.23422 0.19125,-0.3795 0.3812,-0.76003 0.56986,-1.1416 3.3878,-6.8936 6.3076,-14.073 8.8308,-21.434 0.1638,-0.47818 0.32582,-0.95714 0.48607,-1.4369 z m -83.464,-25.359 c 1.0929,0.94267 2.1969,1.8596 3.312,2.7508 -0.25487,0.43798 -0.51148,0.87475 -0.76983,1.3103 -3.9805,6.7038 -8.3408,13.118 -13.079,19.18 -0.2637,0.33528 -0.52836,0.66931 -0.79397,1.0021 -1.127,-0.89278 -2.2395,-1.8093 -3.3376,-2.7494 0.26663,-0.33503 0.53221,-0.67117 0.79673,-1.0084 4.758,-6.085 9.1275,-12.499 13.103,-19.181 0.258,-0.43382 0.51427,-0.86877 0.76881,-1.3048 z m 91.531,-6.3329 c 1.3625,-0.12329 2.7312,-0.2699 4.106,-0.43983 -1.4772,8.688 -3.3412,17.281 -5.7038,25.707 -1.5406,0.19519 -3.0711,0.36471 -4.5914,0.50856 2.5304,-8.4062 4.558,-17.023 6.1892,-25.776 z m -77.587,-23.028 c 1.1028,0.85501 2.2118,1.6867 3.327,2.4951 -3.1168,8.3511 -6.7583,16.442 -10.923,24.189 -1.1153,-0.88186 -2.2204,-1.7894 -3.3154,-2.7226 4.1601,-7.7006 7.7996,-15.716 10.911,-23.962 z m -1.1846,-8.4257 c -4.3401,12.591 -9.9296,24.767 -16.724,36.225 -3.9546,6.6695 -8.3182,13.095 -13.082,19.217 -2.0256,2.6037 -4.1202,5.1512 -6.2776,7.6438 0,1e-5 -1e-5,2e-5 -2e-5,3e-5 -6.3242,7.3066 -13.189,14.14 -20.445,20.536 -1e-5,10e-6 -2e-5,2e-5 -3e-5,2e-5 -5.1317,4.5234 -10.458,8.8272 -15.928,12.924 -1.7072,1.2788 -3.4277,2.5386 -5.1605,3.7805 -14.362,10.293 -29.567,19.358 -45.046,27.871 -10e-6,0 -2e-5,10e-6 -2e-5,10e-6 -0.78199,0.43007 -1.5647,0.85872 -2.348,1.286 0,10e-6 -10e-6,10e-6 -2e-5,2e-5 -15.502,8.4572 -31.271,16.413 -47.041,24.388 -4.1547,2.101 -8.3092,4.2035 -12.459,6.3169 -13.728,6.992 -27.409,14.104 -40.916,21.55 -7.5912,4.1856 -15.125,8.4759 -22.577,12.908 -12.621,7.5055 -25.009,15.42 -37.059,23.813 0,0 -1e-5,0 -1e-5,10e-6 -9.315,6.4885 -18.428,13.261 -27.291,20.348 0,0 -10e-6,0 -10e-6,1e-5 -14.949,11.952 -29.179,24.799 -42.558,38.464 -6.7177,6.8599 -13.223,13.927 -19.499,21.191 -21.504,24.889 -40.32,52.057 -56.565,80.644 61.573,60.753 131.4,96.015 209.47,105.78 3.3705,-32.792 8.2944,-65.514 16.118,-97.522 2.2832,-9.3418 4.8135,-18.623 7.6244,-27.828 5.5983,-18.334 12.361,-36.383 20.719,-53.634 4.9558,-10.228 10.473,-20.176 16.642,-29.736 7.9807,-12.366 17.1,-24.009 27.251,-34.668 5.994,-6.2936 12.348,-12.244 19.041,-17.796 11.908,-9.8782 24.819,-18.468 38.229,-26.191 4.0532,-2.3341 8.1522,-4.5889 12.283,-6.7761 15.679,-8.3026 31.817,-15.682 47.621,-23.697 10e-6,0 2e-5,-1e-5 3e-5,-1e-5 0.79859,-0.40498 1.5963,-0.81158 2.3931,-1.22 0,0 10e-6,-1e-5 2e-5,-1e-5 15.77,-8.0859 31.222,-16.997 44.836,-28.309 1.6427,-1.3646 3.2575,-2.7632 4.8416,-4.1958 5.0757,-4.5898 9.8362,-9.5272 14.194,-14.802 0,-10e-6 10e-6,-2e-5 10e-6,-2e-5 6.1614,-7.4576 11.512,-15.582 16.022,-24.148 1.5389,-2.9222 2.9811,-5.8944 4.3325,-8.9084 3.1776,-7.088 5.852,-14.406 8.1009,-21.846 3.8637,-12.783 6.4891,-25.925 8.2917,-39.166 -32.005,4.4272 -61.014,-3.7223 -87.03,-24.449 z" /><path
     inkscape:connector-curvature="0"
     id="path3636"
     style="color:#000000;fill:#ffffff"
     d="m 639.57,422.73 c 20.707,14.204 43.51,20.509 68.409,18.915 -2.2603,11.383 -5.1965,22.487 -9.0299,33.151 -2.6366,7.3278 -5.6585,14.45 -9.1341,21.264 -1.4834,2.884 -3.0369,5.702 -4.665,8.447 -3.8834,6.5626 -8.1918,12.777 -12.902,18.536 -32.128,-3.7084 -59.621,-12.524 -82.478,-26.448 5.4955,-5.007 10.801,-10.378 15.843,-16.117 2.1121,-2.401 4.1768,-4.8802 6.1897,-7.4379 4.72,-6.048 9.0689,-12.465 13.048,-19.187 5.7839,-9.7839 10.689,-20.218 14.72,-31.122 z" /><path
     inkscape:connector-curvature="0"
     id="path3622"
     style="color:#000000;fill:#ffffff"
     d="m 585.44,500.43 c 23.405,13.404 51.087,22.409 83.047,27.014 -4.0762,4.5876 -8.4789,8.907 -13.134,12.951 -1.5099,1.3139 -3.0442,2.6005 -4.6003,3.8595 -12.858,10.508 -27.767,19.076 -43.311,27.181 -0.78945,0.4075 -1.5806,0.81341 -2.3734,1.2179 -2.6077,1.334 -5.2346,2.656 -7.8773,3.9725 -27.148,-10.205 -55.33,-19.875 -84.547,-29.011 2.607,-1.3746 5.1972,-2.7552 7.769,-4.1448 0.78195,-0.42135 1.5624,-0.84385 2.3413,-1.2676 15.332,-8.4281 30.048,-17.09 43.46,-26.759 1.6232,-1.1575 3.2368,-2.3296 4.8396,-3.5173 v -10e-6 c 4.9415,-3.6569 9.7536,-7.4863 14.387,-11.497 z" /><path
     inkscape:connector-curvature="0"
     id="path3608"
     style="color:#000000;fill:#ffffff"
     d="m 507.15,550.49 c 29.143,9.1253 57.301,18.756 84.474,28.891 -11.487,5.6597 -23.226,11.305 -34.943,17.469 -4.3126,2.2616 -8.5999,4.5956 -12.849,7.0134 -11.741,6.6871 -23.227,14.029 -34.189,22.258 -34.088,-7.0419 -62.796,-17.613 -86.123,-31.712 11.866,-6.8586 23.84,-13.329 35.824,-19.548 4.3367,-2.2483 8.6805,-4.4656 13.025,-6.6616 11.804,-5.9857 23.439,-11.811 34.782,-17.71 z" /><path
     inkscape:connector-curvature="0"
     id="path3594"
     style="color:#000000;fill:#ffffff"
     d="m 417.87,597.71 c 22.848,14.86 51.71,25.662 86.586,32.404 -0.41418,0.32693 -0.82752,0.65523 -1.24,0.9849 -1e-5,0 -1e-5,0 -1e-5,1e-5 -7.2185,5.8074 -14.063,11.979 -20.512,18.472 -10.92,10.995 -20.752,22.913 -29.391,35.529 h -1e-5 c -3.7368,5.4783 -7.2577,11.052 -10.576,16.705 -44.811,-3.7168 -78.713,-20.025 -101.7,-48.923 4.9094,-4.2679 9.9292,-8.4648 15.054,-12.594 11.827,-9.52 24.227,-18.538 37.098,-27.086 7.6012,-5.0479 15.384,-9.9342 23.325,-14.686 0.45373,-0.26938 0.90765,-0.53814 1.3618,-0.80629 z" /><path
     inkscape:connector-curvature="0"
     id="path3580"
     style="color:#000000;fill:#ffffff"
     d="m 336.33,657.02 c 23.493,29.798 57.916,46.552 103.27,50.262 -1.4451,2.5831 -2.8495,5.1814 -4.2145,7.7933 -9.0204,17.248 -16.396,35.122 -22.497,53.155 -2.6148,7.7002 -5.0281,15.443 -7.2572,23.218 -52.215,-6.3996 -95.732,-29.251 -130.55,-68.555 4.8899,-6.3508 9.9481,-12.593 15.168,-18.719 12.191,-14.356 25.405,-28.144 39.579,-41.245 2.1451,-1.9842 4.3137,-3.9533 6.5054,-5.9076 z" /><path
     inkscape:connector-curvature="0"
     id="path3566"
     style="color:#000000;fill:#ffffff"
     d="m 271.42,727.7 c 35.726,39.696 79.912,62.901 132.56,69.614 -7.9144,28.774 -13.458,58.085 -17.569,87.416 -59.176,-11.634 -113.11,-38.982 -161.8,-82.045 13.505,-26.125 29.043,-51.332 46.808,-74.986 z" /></g><rect
   transform="scale(1,-1)"
   style="fill:#afe9af;fill-opacity:1;stroke:none;display:inline"
   id="rect4003"
   width="191.4738"
   height="73.92115"
   x="9.0147743"
   y="-104.93201" /><text
   transform="scale(1,-1)"
   xml:space="preserve"
   style="font-size:3.29172826px;font-style:normal;font-variant:normal;font-weight:normal;font-stretch:normal;text-align:start;line-height:125%;letter-spacing:0px;word-spacing:0px;writing-mode:lr-tb;text-anchor:start;fill:#000000;fill-opacity:1;stroke:none;display:inline;font-family:'M+ 1p';-inkscape-font-specification:'M+ 1p'"
   x="21.219149"
   y="-52.057983"
   id="text3071"
   sodipodi:linespacing="125%"><tspan
     sodipodi:role="line"
     id="tspan3073"
     x="21.219149"
     y="-52.057983"
     style="font-size:8.77794075px;font-style:normal;font-variant:normal;font-weight:normal;font-stretch:normal;text-align:start;line-height:125%;writing-mode:lr-tb;text-anchor:start;font-family:Liberation Mono;-inkscape-font-specification:Liberation Mono">www.pirati.cz/fsf</tspan></text>
<rect
   style="fill:#afdde9;fill-opacity:1;stroke:none;display:inline"
   id="rect4001"
   width="204.0945"
   height="15.144821"
   x="3.2453187"
   y="-123.68274"
   transform="scale(1,-1)" /><rect
   style="fill:#e9ddaf;fill-opacity:1;stroke:none"
   id="rect4098"
   width="169.83836"
   height="18.750729"
   x="18.390141"
   y="-26.683765"
   transform="scale(1,-1)" /><g
   transform="matrix(0.11910653,0,0,0.11910653,127.35018,10.681299)"
   id="vlna"><g
   id="g144"><g
     clip-path="url(#clipPath148-3)"
     id="g146"><g
       clip-path="url(#clipPath154-7)"
       id="g152"><path
         d="m 14.173,14.145 392.421,0 0,92.058 -392.421,0 0,-92.058 z"
         inkscape:connector-curvature="0"
         id="path158"
         style="fill:#f57e1a;fill-opacity:1;fill-rule:nonzero;stroke:none" /></g></g></g><text
   transform="scale(1,-1)"
   id="text160"
   style="font-size:35.88204575px;text-align:end;line-height:125%;text-anchor:end"
   sodipodi:linespacing="125%"
   x="309.71112"
   y="-47.733646"><tspan
     style="font-size:40.65087891px;font-style:normal;font-variant:normal;font-weight:900;font-stretch:normal;text-align:end;line-height:125%;writing-mode:lr-tb;text-anchor:end;fill:#000000;fill-opacity:1;fill-rule:nonzero;stroke:none;font-family:'M+ 1p';-inkscape-font-specification:'M+ 1p Heavy'"
     sodipodi:role="line"
     x="309.71112"
     y="-47.733646"
     id="tspan3409">PIRÁTI</tspan></text>




<g
   id="g164"><g
     clip-path="url(#clipPath168-3)"
     id="g166"><g
       transform="translate(355.419,20.372)"
       id="g172"><path
         d="M 0,0 C 24.75,0 44.814,20.064 44.814,44.814 44.814,69.564 24.75,89.628 0,89.628 -24.75,89.628 -44.814,69.564 -44.814,44.814 -44.814,20.064 -24.75,0 0,0"
         inkscape:connector-curvature="0"
         id="path174"
         style="fill:#ffffff;fill-opacity:1;fill-rule:nonzero;stroke:none" /></g></g></g><g
   transform="translate(355.42,25.934)"
   id="g176"><path
     d="m 0,0 c -21.694,0 -39.28,17.586 -39.28,39.28 0,21.694 17.586,39.28 39.28,39.28 21.694,0 39.281,-17.586 39.281,-39.28 C 39.281,17.586 21.694,0 0,0"
     inkscape:connector-curvature="0"
     id="path178"
     style="fill:#ffffff;fill-opacity:1;fill-rule:nonzero;stroke:none" /></g><g
   transform="translate(355.42,25.934)"
   id="g180"><path
     d="m 0,0 c -21.694,0 -39.28,17.586 -39.28,39.28 0,21.694 17.586,39.28 39.28,39.28 21.694,0 39.281,-17.586 39.281,-39.28 C 39.281,17.586 21.694,0 0,0 z"
     inkscape:connector-curvature="0"
     id="path182"
     style="fill:none;stroke:#050301;stroke-width:3.91899991;stroke-linecap:butt;stroke-linejoin:miter;stroke-miterlimit:4;stroke-opacity:1;stroke-dasharray:none" /></g><path
   d="m 339.393,50.872 3.5998,0 0,44.648 -3.5998,0 0,-44.648 z"
   inkscape:connector-curvature="0"
   id="path188"
   style="fill:#050301;fill-opacity:1;fill-rule:nonzero;stroke:none" /><g
   transform="translate(335.759,86.835)"
   id="g184"><path
     d="m 0,0 c 4.323,1.259 22.55,-1.222 18.826,-18.854 -1.356,-6.416 -8.793,-9.542 -12.398,-12.242 -8.533,-6.39 -1.184,-21.568 -1.184,-21.568 0,0 -3.976,11.806 4.878,17.39 8.146,5.139 36.229,2.725 36.132,18.574 C 46.07,13.668 -1.249,2.713 0,0"
     inkscape:connector-curvature="0"
     id="path186"
     style="fill:#050301;fill-opacity:1;fill-rule:nonzero;stroke:none" /></g></g><g
   id="QRcode"
   transform="matrix(1.8683166,0,0,-1.8683166,127.29386,99.539684)"><rect
     id="rect4406"
     height="33"
     width="33"
     y="0"
     x="0"
     style="fill:#ffffff" /><g
     id="Pattern"><rect
       id="rect4409"
       height="1"
       width="7"
       y="4"
       x="4"
       style="fill:#000000" /><rect
       id="rect4411"
       height="1"
       width="1"
       y="4"
       x="12"
       style="fill:#000000" /><rect
       id="rect4413"
       height="1"
       width="2"
       y="4"
       x="15"
       style="fill:#000000" /><rect
       id="rect4415"
       height="1"
       width="1"
       y="4"
       x="18"
       style="fill:#000000" /><rect
       id="rect4417"
       height="1"
       width="7"
       y="4"
       x="22"
       style="fill:#000000" /><rect
       id="rect4419"
       height="1"
       width="1"
       y="5"
       x="4"
       style="fill:#000000" /><rect
       id="rect4421"
       height="1"
       width="1"
       y="5"
       x="10"
       style="fill:#000000" /><rect
       id="rect4423"
       height="1"
       width="2"
       y="5"
       x="13"
       style="fill:#000000" /><rect
       id="rect4425"
       height="1"
       width="2"
       y="5"
       x="17"
       style="fill:#000000" /><rect
       id="rect4427"
       height="1"
       width="1"
       y="5"
       x="22"
       style="fill:#000000" /><rect
       id="rect4429"
       height="1"
       width="1"
       y="5"
       x="28"
       style="fill:#000000" /><rect
       id="rect4431"
       height="1"
       width="1"
       y="6"
       x="4"
       style="fill:#000000" /><rect
       id="rect4433"
       height="1"
       width="3"
       y="6"
       x="6"
       style="fill:#000000" /><rect
       id="rect4435"
       height="1"
       width="1"
       y="6"
       x="10"
       style="fill:#000000" /><rect
       id="rect4437"
       height="1"
       width="1"
       y="6"
       x="14"
       style="fill:#000000" /><rect
       id="rect4439"
       height="1"
       width="4"
       y="6"
       x="16"
       style="fill:#000000" /><rect
       id="rect4441"
       height="1"
       width="1"
       y="6"
       x="22"
       style="fill:#000000" /><rect
       id="rect4443"
       height="1"
       width="3"
       y="6"
       x="24"
       style="fill:#000000" /><rect
       id="rect4445"
       height="1"
       width="1"
       y="6"
       x="28"
       style="fill:#000000" /><rect
       id="rect4447"
       height="1"
       width="1"
       y="7"
       x="4"
       style="fill:#000000" /><rect
       id="rect4449"
       height="1"
       width="3"
       y="7"
       x="6"
       style="fill:#000000" /><rect
       id="rect4451"
       height="1"
       width="1"
       y="7"
       x="10"
       style="fill:#000000" /><rect
       id="rect4453"
       height="1"
       width="3"
       y="7"
       x="16"
       style="fill:#000000" /><rect
       id="rect4455"
       height="1"
       width="1"
       y="7"
       x="22"
       style="fill:#000000" /><rect
       id="rect4457"
       height="1"
       width="3"
       y="7"
       x="24"
       style="fill:#000000" /><rect
       id="rect4459"
       height="1"
       width="1"
       y="7"
       x="28"
       style="fill:#000000" /><rect
       id="rect4461"
       height="1"
       width="1"
       y="8"
       x="4"
       style="fill:#000000" /><rect
       id="rect4463"
       height="1"
       width="3"
       y="8"
       x="6"
       style="fill:#000000" /><rect
       id="rect4465"
       height="1"
       width="1"
       y="8"
       x="10"
       style="fill:#000000" /><rect
       id="rect4467"
       height="1"
       width="1"
       y="8"
       x="13"
       style="fill:#000000" /><rect
       id="rect4469"
       height="1"
       width="1"
       y="8"
       x="15"
       style="fill:#000000" /><rect
       id="rect4471"
       height="1"
       width="2"
       y="8"
       x="17"
       style="fill:#000000" /><rect
       id="rect4473"
       height="1"
       width="1"
       y="8"
       x="20"
       style="fill:#000000" /><rect
       id="rect4475"
       height="1"
       width="1"
       y="8"
       x="22"
       style="fill:#000000" /><rect
       id="rect4477"
       height="1"
       width="3"
       y="8"
       x="24"
       style="fill:#000000" /><rect
       id="rect4479"
       height="1"
       width="1"
       y="8"
       x="28"
       style="fill:#000000" /><rect
       id="rect4481"
       height="1"
       width="1"
       y="9"
       x="4"
       style="fill:#000000" /><rect
       id="rect4483"
       height="1"
       width="1"
       y="9"
       x="10"
       style="fill:#000000" /><rect
       id="rect4485"
       height="1"
       width="1"
       y="9"
       x="14"
       style="fill:#000000" /><rect
       id="rect4487"
       height="1"
       width="3"
       y="9"
       x="16"
       style="fill:#000000" /><rect
       id="rect4489"
       height="1"
       width="1"
       y="9"
       x="22"
       style="fill:#000000" /><rect
       id="rect4491"
       height="1"
       width="1"
       y="9"
       x="28"
       style="fill:#000000" /><rect
       id="rect4493"
       height="1"
       width="7"
       y="10"
       x="4"
       style="fill:#000000" /><rect
       id="rect4495"
       height="1"
       width="1"
       y="10"
       x="12"
       style="fill:#000000" /><rect
       id="rect4497"
       height="1"
       width="1"
       y="10"
       x="14"
       style="fill:#000000" /><rect
       id="rect4499"
       height="1"
       width="1"
       y="10"
       x="16"
       style="fill:#000000" /><rect
       id="rect4501"
       height="1"
       width="1"
       y="10"
       x="18"
       style="fill:#000000" /><rect
       id="rect4503"
       height="1"
       width="1"
       y="10"
       x="20"
       style="fill:#000000" /><rect
       id="rect4505"
       height="1"
       width="7"
       y="10"
       x="22"
       style="fill:#000000" /><rect
       id="rect4507"
       height="1"
       width="1"
       y="11"
       x="12"
       style="fill:#000000" /><rect
       id="rect4509"
       height="1"
       width="2"
       y="11"
       x="14"
       style="fill:#000000" /><rect
       id="rect4511"
       height="1"
       width="2"
       y="11"
       x="17"
       style="fill:#000000" /><rect
       id="rect4513"
       height="1"
       width="2"
       y="12"
       x="4"
       style="fill:#000000" /><rect
       id="rect4515"
       height="1"
       width="2"
       y="12"
       x="7"
       style="fill:#000000" /><rect
       id="rect4517"
       height="1"
       width="1"
       y="12"
       x="10"
       style="fill:#000000" /><rect
       id="rect4519"
       height="1"
       width="3"
       y="12"
       x="13"
       style="fill:#000000" /><rect
       id="rect4521"
       height="1"
       width="3"
       y="12"
       x="18"
       style="fill:#000000" /><rect
       id="rect4523"
       height="1"
       width="1"
       y="12"
       x="22"
       style="fill:#000000" /><rect
       id="rect4525"
       height="1"
       width="1"
       y="12"
       x="28"
       style="fill:#000000" /><rect
       id="rect4527"
       height="1"
       width="1"
       y="13"
       x="5"
       style="fill:#000000" /><rect
       id="rect4529"
       height="1"
       width="2"
       y="13"
       x="7"
       style="fill:#000000" /><rect
       id="rect4531"
       height="1"
       width="1"
       y="13"
       x="13"
       style="fill:#000000" /><rect
       id="rect4533"
       height="1"
       width="1"
       y="13"
       x="16"
       style="fill:#000000" /><rect
       id="rect4535"
       height="1"
       width="2"
       y="13"
       x="18"
       style="fill:#000000" /><rect
       id="rect4537"
       height="1"
       width="1"
       y="13"
       x="21"
       style="fill:#000000" /><rect
       id="rect4539"
       height="1"
       width="5"
       y="13"
       x="23"
       style="fill:#000000" /><rect
       id="rect4541"
       height="1"
       width="1"
       y="14"
       x="5"
       style="fill:#000000" /><rect
       id="rect4543"
       height="1"
       width="1"
       y="14"
       x="7"
       style="fill:#000000" /><rect
       id="rect4545"
       height="1"
       width="4"
       y="14"
       x="9"
       style="fill:#000000" /><rect
       id="rect4547"
       height="1"
       width="2"
       y="14"
       x="14"
       style="fill:#000000" /><rect
       id="rect4549"
       height="1"
       width="3"
       y="14"
       x="17"
       style="fill:#000000" /><rect
       id="rect4551"
       height="1"
       width="2"
       y="14"
       x="22"
       style="fill:#000000" /><rect
       id="rect4553"
       height="1"
       width="1"
       y="14"
       x="25"
       style="fill:#000000" /><rect
       id="rect4555"
       height="1"
       width="1"
       y="14"
       x="28"
       style="fill:#000000" /><rect
       id="rect4557"
       height="1"
       width="1"
       y="15"
       x="5"
       style="fill:#000000" /><rect
       id="rect4559"
       height="1"
       width="1"
       y="15"
       x="7"
       style="fill:#000000" /><rect
       id="rect4561"
       height="1"
       width="1"
       y="15"
       x="9"
       style="fill:#000000" /><rect
       id="rect4563"
       height="1"
       width="4"
       y="15"
       x="13"
       style="fill:#000000" /><rect
       id="rect4565"
       height="1"
       width="3"
       y="15"
       x="18"
       style="fill:#000000" /><rect
       id="rect4567"
       height="1"
       width="1"
       y="15"
       x="23"
       style="fill:#000000" /><rect
       id="rect4569"
       height="1"
       width="4"
       y="15"
       x="25"
       style="fill:#000000" /><rect
       id="rect4571"
       height="1"
       width="1"
       y="16"
       x="7"
       style="fill:#000000" /><rect
       id="rect4573"
       height="1"
       width="1"
       y="16"
       x="10"
       style="fill:#000000" /><rect
       id="rect4575"
       height="1"
       width="2"
       y="16"
       x="12"
       style="fill:#000000" /><rect
       id="rect4577"
       height="1"
       width="2"
       y="16"
       x="15"
       style="fill:#000000" /><rect
       id="rect4579"
       height="1"
       width="1"
       y="16"
       x="19"
       style="fill:#000000" /><rect
       id="rect4581"
       height="1"
       width="1"
       y="16"
       x="22"
       style="fill:#000000" /><rect
       id="rect4583"
       height="1"
       width="1"
       y="16"
       x="28"
       style="fill:#000000" /><rect
       id="rect4585"
       height="1"
       width="4"
       y="17"
       x="4"
       style="fill:#000000" /><rect
       id="rect4587"
       height="1"
       width="1"
       y="17"
       x="9"
       style="fill:#000000" /><rect
       id="rect4589"
       height="1"
       width="2"
       y="17"
       x="11"
       style="fill:#000000" /><rect
       id="rect4591"
       height="1"
       width="3"
       y="17"
       x="19"
       style="fill:#000000" /><rect
       id="rect4593"
       height="1"
       width="1"
       y="17"
       x="24"
       style="fill:#000000" /><rect
       id="rect4595"
       height="1"
       width="1"
       y="17"
       x="27"
       style="fill:#000000" /><rect
       id="rect4597"
       height="1"
       width="3"
       y="18"
       x="4"
       style="fill:#000000" /><rect
       id="rect4599"
       height="1"
       width="1"
       y="18"
       x="10"
       style="fill:#000000" /><rect
       id="rect4601"
       height="1"
       width="2"
       y="18"
       x="12"
       style="fill:#000000" /><rect
       id="rect4603"
       height="1"
       width="2"
       y="18"
       x="15"
       style="fill:#000000" /><rect
       id="rect4605"
       height="1"
       width="1"
       y="18"
       x="19"
       style="fill:#000000" /><rect
       id="rect4607"
       height="1"
       width="2"
       y="18"
       x="21"
       style="fill:#000000" /><rect
       id="rect4609"
       height="1"
       width="5"
       y="18"
       x="24"
       style="fill:#000000" /><rect
       id="rect4611"
       height="1"
       width="1"
       y="19"
       x="4"
       style="fill:#000000" /><rect
       id="rect4613"
       height="1"
       width="2"
       y="19"
       x="6"
       style="fill:#000000" /><rect
       id="rect4615"
       height="1"
       width="1"
       y="19"
       x="11"
       style="fill:#000000" /><rect
       id="rect4617"
       height="1"
       width="2"
       y="19"
       x="14"
       style="fill:#000000" /><rect
       id="rect4619"
       height="1"
       width="1"
       y="19"
       x="18"
       style="fill:#000000" /><rect
       id="rect4621"
       height="1"
       width="2"
       y="19"
       x="20"
       style="fill:#000000" /><rect
       id="rect4623"
       height="1"
       width="1"
       y="19"
       x="23"
       style="fill:#000000" /><rect
       id="rect4625"
       height="1"
       width="2"
       y="19"
       x="25"
       style="fill:#000000" /><rect
       id="rect4627"
       height="1"
       width="1"
       y="19"
       x="28"
       style="fill:#000000" /><rect
       id="rect4629"
       height="1"
       width="1"
       y="20"
       x="4"
       style="fill:#000000" /><rect
       id="rect4631"
       height="1"
       width="1"
       y="20"
       x="6"
       style="fill:#000000" /><rect
       id="rect4633"
       height="1"
       width="1"
       y="20"
       x="8"
       style="fill:#000000" /><rect
       id="rect4635"
       height="1"
       width="1"
       y="20"
       x="10"
       style="fill:#000000" /><rect
       id="rect4637"
       height="1"
       width="1"
       y="20"
       x="12"
       style="fill:#000000" /><rect
       id="rect4639"
       height="1"
       width="3"
       y="20"
       x="16"
       style="fill:#000000" /><rect
       id="rect4641"
       height="1"
       width="5"
       y="20"
       x="20"
       style="fill:#000000" /><rect
       id="rect4643"
       height="1"
       width="2"
       y="20"
       x="26"
       style="fill:#000000" /><rect
       id="rect4645"
       height="1"
       width="6"
       y="21"
       x="12"
       style="fill:#000000" /><rect
       id="rect4647"
       height="1"
       width="1"
       y="21"
       x="20"
       style="fill:#000000" /><rect
       id="rect4649"
       height="1"
       width="1"
       y="21"
       x="24"
       style="fill:#000000" /><rect
       id="rect4651"
       height="1"
       width="2"
       y="21"
       x="26"
       style="fill:#000000" /><rect
       id="rect4653"
       height="1"
       width="7"
       y="22"
       x="4"
       style="fill:#000000" /><rect
       id="rect4655"
       height="1"
       width="1"
       y="22"
       x="13"
       style="fill:#000000" /><rect
       id="rect4657"
       height="1"
       width="2"
       y="22"
       x="15"
       style="fill:#000000" /><rect
       id="rect4659"
       height="1"
       width="1"
       y="22"
       x="20"
       style="fill:#000000" /><rect
       id="rect4661"
       height="1"
       width="1"
       y="22"
       x="22"
       style="fill:#000000" /><rect
       id="rect4663"
       height="1"
       width="1"
       y="22"
       x="24"
       style="fill:#000000" /><rect
       id="rect4665"
       height="1"
       width="1"
       y="22"
       x="28"
       style="fill:#000000" /><rect
       id="rect4667"
       height="1"
       width="1"
       y="23"
       x="4"
       style="fill:#000000" /><rect
       id="rect4669"
       height="1"
       width="1"
       y="23"
       x="10"
       style="fill:#000000" /><rect
       id="rect4671"
       height="1"
       width="1"
       y="23"
       x="15"
       style="fill:#000000" /><rect
       id="rect4673"
       height="1"
       width="1"
       y="23"
       x="17"
       style="fill:#000000" /><rect
       id="rect4675"
       height="1"
       width="2"
       y="23"
       x="19"
       style="fill:#000000" /><rect
       id="rect4677"
       height="1"
       width="1"
       y="23"
       x="24"
       style="fill:#000000" /><rect
       id="rect4679"
       height="1"
       width="2"
       y="23"
       x="27"
       style="fill:#000000" /><rect
       id="rect4681"
       height="1"
       width="1"
       y="24"
       x="4"
       style="fill:#000000" /><rect
       id="rect4683"
       height="1"
       width="3"
       y="24"
       x="6"
       style="fill:#000000" /><rect
       id="rect4685"
       height="1"
       width="1"
       y="24"
       x="10"
       style="fill:#000000" /><rect
       id="rect4687"
       height="1"
       width="1"
       y="24"
       x="12"
       style="fill:#000000" /><rect
       id="rect4689"
       height="1"
       width="1"
       y="24"
       x="16"
       style="fill:#000000" /><rect
       id="rect4691"
       height="1"
       width="7"
       y="24"
       x="18"
       style="fill:#000000" /><rect
       id="rect4693"
       height="1"
       width="1"
       y="25"
       x="4"
       style="fill:#000000" /><rect
       id="rect4695"
       height="1"
       width="3"
       y="25"
       x="6"
       style="fill:#000000" /><rect
       id="rect4697"
       height="1"
       width="1"
       y="25"
       x="10"
       style="fill:#000000" /><rect
       id="rect4699"
       height="1"
       width="4"
       y="25"
       x="12"
       style="fill:#000000" /><rect
       id="rect4701"
       height="1"
       width="1"
       y="25"
       x="18"
       style="fill:#000000" /><rect
       id="rect4703"
       height="1"
       width="1"
       y="25"
       x="20"
       style="fill:#000000" /><rect
       id="rect4705"
       height="1"
       width="1"
       y="25"
       x="22"
       style="fill:#000000" /><rect
       id="rect4707"
       height="1"
       width="2"
       y="25"
       x="27"
       style="fill:#000000" /><rect
       id="rect4709"
       height="1"
       width="1"
       y="26"
       x="4"
       style="fill:#000000" /><rect
       id="rect4711"
       height="1"
       width="3"
       y="26"
       x="6"
       style="fill:#000000" /><rect
       id="rect4713"
       height="1"
       width="1"
       y="26"
       x="10"
       style="fill:#000000" /><rect
       id="rect4715"
       height="1"
       width="1"
       y="26"
       x="15"
       style="fill:#000000" /><rect
       id="rect4717"
       height="1"
       width="1"
       y="26"
       x="17"
       style="fill:#000000" /><rect
       id="rect4719"
       height="1"
       width="1"
       y="26"
       x="19"
       style="fill:#000000" /><rect
       id="rect4721"
       height="1"
       width="1"
       y="26"
       x="21"
       style="fill:#000000" /><rect
       id="rect4723"
       height="1"
       width="5"
       y="26"
       x="24"
       style="fill:#000000" /><rect
       id="rect4725"
       height="1"
       width="1"
       y="27"
       x="4"
       style="fill:#000000" /><rect
       id="rect4727"
       height="1"
       width="1"
       y="27"
       x="10"
       style="fill:#000000" /><rect
       id="rect4729"
       height="1"
       width="2"
       y="27"
       x="12"
       style="fill:#000000" /><rect
       id="rect4731"
       height="1"
       width="1"
       y="27"
       x="16"
       style="fill:#000000" /><rect
       id="rect4733"
       height="1"
       width="1"
       y="27"
       x="19"
       style="fill:#000000" /><rect
       id="rect4735"
       height="1"
       width="2"
       y="27"
       x="23"
       style="fill:#000000" /><rect
       id="rect4737"
       height="1"
       width="3"
       y="27"
       x="26"
       style="fill:#000000" /><rect
       id="rect4739"
       height="1"
       width="7"
       y="28"
       x="4"
       style="fill:#000000" /><rect
       id="rect4741"
       height="1"
       width="1"
       y="28"
       x="12"
       style="fill:#000000" /><rect
       id="rect4743"
       height="1"
       width="2"
       y="28"
       x="14"
       style="fill:#000000" /><rect
       id="rect4745"
       height="1"
       width="2"
       y="28"
       x="20"
       style="fill:#000000" /><rect
       id="rect4747"
       height="1"
       width="1"
       y="28"
       x="25"
       style="fill:#000000" /><rect
       id="rect4749"
       height="1"
       width="1"
       y="28"
       x="28"
       style="fill:#000000" /></g></g><text
   xml:space="preserve"
   style="font-size:4.80000019px;font-style:normal;font-variant:normal;font-weight:normal;font-stretch:normal;text-align:start;line-height:125%;letter-spacing:0px;word-spacing:0px;writing-mode:lr-tb;text-anchor:start;fill:#000000;fill-opacity:1;stroke:none;font-family:'M+ 1p';-inkscape-font-specification:'M+ 1p'"
   x="20.8493"
   y="-89.756653"
   id="text4931"
   sodipodi:linespacing="125%"
   transform="scale(1,-1)"><tspan
     sodipodi:role="line"
     id="tspan4933"
     x="20.8493"
     y="-89.756653"
     style="font-size:7.19999981px;font-style:normal;font-variant:normal;font-weight:900;font-stretch:normal;text-align:start;line-height:125%;writing-mode:lr-tb;text-anchor:start;font-family:'M+ 1p';-inkscape-font-specification:'M+ 1p Heavy'">INFO O FILMECH</tspan><tspan
     sodipodi:role="line"
     x="20.8493"
     y="-80.756653"
     id="tspan4935"
     style="font-size:7.19999981px;font-style:normal;font-variant:normal;font-weight:900;font-stretch:normal;text-align:start;line-height:125%;writing-mode:lr-tb;text-anchor:start;font-family:'M+ 1p';-inkscape-font-specification:'M+ 1p Heavy'">A JAK PŘISPĚT</tspan><tspan
     sodipodi:role="line"
     x="20.8493"
     y="-71.756653"
     id="tspan4937"
     style="font-size:7.19999981px;font-style:normal;font-variant:normal;font-weight:900;font-stretch:normal;text-align:start;line-height:125%;writing-mode:lr-tb;text-anchor:start;font-family:'M+ 1p';-inkscape-font-specification:'M+ 1p Heavy'">AUTORŮM</tspan></text>
<text
   xml:space="preserve"
   style="font-size:4.80000019px;font-style:normal;font-variant:normal;font-weight:normal;font-stretch:normal;text-align:start;line-height:125%;letter-spacing:0px;word-spacing:0px;writing-mode:lr-tb;text-anchor:start;fill:#000000;fill-opacity:1;stroke:none;font-family:'M+ 1p';-inkscape-font-specification:'M+ 1p'"
   x="27.65753"
   y="-15.219928"
   id="text37139"
   sodipodi:linespacing="125%"
   transform="scale(1,-1)"><tspan
     sodipodi:role="line"
     x="27.65753"
     y="-15.219928"
     id="tspan37143"
     style="font-size:7.19999981px;font-style:normal;font-variant:normal;font-weight:900;font-stretch:normal;text-align:start;line-height:125%;writing-mode:lr-tb;text-anchor:start;font-family:'M+ 1p';-inkscape-font-specification:'M+ 1p Heavy'">MEDIÁLNÍ PARTNER</tspan></text>
<text
   xml:space="preserve"
   style="font-size:4.80000019px;font-style:normal;font-variant:normal;font-weight:normal;font-stretch:normal;text-align:start;line-height:125%;letter-spacing:0px;word-spacing:0px;writing-mode:lr-tb;text-anchor:start;fill:#000000;fill-opacity:1;stroke:none;font-family:'M+ 1p';-inkscape-font-specification:'M+ 1p'"
   x="105.37086"
   y="-112.50444"
   id="text37147"
   sodipodi:linespacing="125%"
   transform="scale(1,-1)"><tspan
     sodipodi:role="line"
     id="tspan37149"
     x="105.37086"
     y="-112.50444"
     style="font-size:9.60000038px;font-style:normal;font-variant:normal;font-weight:900;font-stretch:normal;text-align:center;line-height:125%;writing-mode:lr-tb;text-anchor:middle;font-family:'M+ 1p';-inkscape-font-specification:'M+ 1p Heavy'">10. DUBNA 2014, KLUB BÉČKO, TŘEBÍČ</tspan></text>
</g></svg>